<?xml version="1.0" encoding="UTF-8" standalone="no"?>
<svg
   xmlns:dc="http://purl.org/dc/elements/1.1/"
   xmlns:cc="http://creativecommons.org/ns#"
   xmlns:rdf="http://www.w3.org/1999/02/22-rdf-syntax-ns#"
   xmlns:svg="http://www.w3.org/2000/svg"
   xmlns="http://www.w3.org/2000/svg"
   xmlns:sodipodi="http://sodipodi.sourceforge.net/DTD/sodipodi-0.dtd"
   xmlns:inkscape="http://www.inkscape.org/namespaces/inkscape"
   version="1.1"
   x="0px"
   y="0px"
   viewBox="0 0 100 100"
   id="svg2"
   inkscape:version="0.91 r13725"
   sodipodi:docname="noun_612997_cc.svg">
  <metadata
     id="metadata12">
    <rdf:RDF>
      <cc:Work
         rdf:about="">
        <dc:format>image/svg+xml</dc:format>
        <dc:type
           rdf:resource="http://purl.org/dc/dcmitype/StillImage" />
        <dc:title></dc:title>
      </cc:Work>
    </rdf:RDF>
  </metadata>
  <defs
     id="defs10" />
  <sodipodi:namedview
     pagecolor="#ffffff"
     bordercolor="#666666"
     borderopacity="1"
     objecttolerance="10"
     gridtolerance="10"
     guidetolerance="10"
     inkscape:pageopacity="0"
     inkscape:pageshadow="2"
     inkscape:window-width="1920"
     inkscape:window-height="1022"
     id="namedview8"
     showgrid="false"
     inkscape:zoom="4.72"
     inkscape:cx="44.665526"
     inkscape:cy="84.303086"
     inkscape:window-x="0"
     inkscape:window-y="27"
     inkscape:window-maximized="1"
     inkscape:current-layer="svg2" />
  <g
     transform="translate(0,-952.36218)"
     id="g4"
     style="fill:#34061b;fill-opacity:1">
    <path
       style="font-size:medium;font-style:normal;font-variant:normal;font-weight:normal;font-stretch:normal;text-indent:0;text-align:start;text-decoration:none;line-height:normal;letter-spacing:normal;word-spacing:normal;text-transform:none;direction:ltr;block-progression:tb;writing-mode:lr-tb;text-anchor:start;baseline-shift:baseline;opacity:1;color:#000000;fill:#34061b;fill-opacity:1;stroke:none;stroke-width:2;marker:none;visibility:visible;display:inline;overflow:visible;enable-background:accumulate;font-family:Sans;-inkscape-font-specification:Sans"
       d="M 50 17 C 47.41755 17 45.084636 17.31554 43.3125 17.90625 C 42.426432 18.20161 41.687437 18.56181 41.09375 19.03125 C 40.500063 19.50069 40 20.18197 40 21 L 40 23.3125 L 35.9375 25 C 35.85076 24.9687 35.777254 24.93617 35.6875 24.90625 C 33.915364 24.31554 31.58245 24 29 24 C 26.41755 24 24.084636 24.31554 22.3125 24.90625 C 21.426432 25.20161 20.687437 25.56181 20.09375 26.03125 C 19.500063 26.50069 19 27.18197 19 28 L 19 32.3125 L 7.625 37.0625 C 7.2551509 37.212115 6.9958568 37.601056 7 38 L 7 65 C 7.00813 65.3885 7.2647476 65.760591 7.625 65.90625 L 49.625 82.90625 C 49.744489 82.95073 49.872543 82.97208 50 82.96875 C 50.127457 82.97275 50.255511 82.95025 50.375 82.90625 L 92.375 65.90625 C 92.735252 65.76065 92.9919 65.3885 93 65 L 93 38 C 93.004143 37.60106 92.744849 37.21212 92.375 37.0625 L 81 32.3125 L 81 28 C 81 27.18197 80.499937 26.50069 79.90625 26.03125 C 79.312563 25.56181 78.573568 25.20161 77.6875 24.90625 C 75.915364 24.31554 73.58245 24 71 24 C 68.41755 24 66.084636 24.31554 64.3125 24.90625 C 64.222746 24.93615 64.14924 24.9687 64.0625 25 L 60 23.3125 L 60 21 C 60 20.18197 59.499937 19.50069 58.90625 19.03125 C 58.312563 18.56181 57.573568 18.20161 56.6875 17.90625 C 54.915364 17.31554 52.58245 17 50 17 z M 50 19 C 52.40355 19 54.581136 19.31871 56.0625 19.8125 C 56.803182 20.05939 57.372749 20.34487 57.6875 20.59375 C 58.0023 20.84263 58 20.987 58 21 C 58 21 57.9941 21.9377 58 22 C 58 22.01297 58.002251 22.12612 57.6875 22.375 C 57.372749 22.62388 56.803182 22.90936 56.0625 23.15625 C 54.581136 23.65004 52.40355 24 50 24 C 47.59645 24 45.418864 23.65004 43.9375 23.15625 C 43.196818 22.90936 42.627251 22.62388 42.3125 22.375 C 41.997749 22.12612 42 22.01297 42 22 C 42.0059 21.93768 42 21 42 21 C 42 20.987 41.9977 20.84263 42.3125 20.59375 C 42.627251 20.34487 43.196818 20.05939 43.9375 19.8125 C 45.418864 19.31871 47.59645 19 50 19 z M 42 24.5 C 42.396743 24.70745 42.828156 24.90105 43.3125 25.0625 C 45.084636 25.65321 47.41755 26 50 26 C 52.58245 26 54.915364 25.65321 56.6875 25.0625 C 57.171844 24.90105 57.603257 24.70745 58 24.5 L 58 29 C 58 29.01297 58.002251 29.12612 57.6875 29.375 C 57.372749 29.62388 56.803182 29.90936 56.0625 30.15625 C 54.581136 30.65004 52.40355 31 50 31 C 47.59645 31 45.418864 30.65004 43.9375 30.15625 C 43.196818 29.90936 42.627251 29.62388 42.3125 29.375 C 41.997749 29.12612 42 29.01297 42 29 L 42 24.5 z M 40 25.46875 L 40 29 C 40 29.81803 40.500063 30.46806 41.09375 30.9375 C 41.643002 31.371805 42.325609 31.717537 43.125 32 C 42.330717 32.281655 41.64033 32.599059 41.09375 33.03125 C 40.500063 33.50069 40 34.18197 40 35 L 40 43 C 40 43.81803 40.500063 44.46806 41.09375 44.9375 C 41.687437 45.40694 42.426432 45.76714 43.3125 46.0625 C 45.084636 46.65321 47.41755 47 50 47 C 52.58245 47 54.915364 46.65321 56.6875 46.0625 C 57.573568 45.76714 58.312563 45.40694 58.90625 44.9375 C 59.499937 44.46806 60 43.81803 60 43 L 60 35 C 60 34.18197 59.499937 33.50069 58.90625 33.03125 C 58.35967 32.59906 57.669283 32.28166 56.875 32 C 57.674391 31.71754 58.356998 31.37181 58.90625 30.9375 C 59.499937 30.46806 60 29.81803 60 29 L 60 25.46875 L 61.875 26.25 C 61.389419 26.70443 61 27.29209 61 28 L 61 36 C 61 36.81803 61.500063 37.46806 62.09375 37.9375 C 62.687437 38.40694 63.426432 38.76714 64.3125 39.0625 C 66.084636 39.65321 68.41755 40 71 40 C 73.58245 40 75.915364 39.65321 77.6875 39.0625 C 78.573568 38.76714 79.312563 38.40694 79.90625 37.9375 C 80.499937 37.46806 81 36.81803 81 36 L 81 34.46875 L 89.375 37.96875 L 50 53.90625 L 10.625 37.96875 L 19 34.46875 L 19 36 C 19 36.81803 19.500063 37.46806 20.09375 37.9375 C 20.687437 38.40694 21.426432 38.76714 22.3125 39.0625 C 24.084636 39.65321 26.41755 40 29 40 C 31.58245 40 33.915364 39.65321 35.6875 39.0625 C 36.573568 38.76714 37.312563 38.40694 37.90625 37.9375 C 38.499937 37.46806 39 36.81803 39 36 L 39 28 C 39 27.292089 38.610581 26.704425 38.125 26.25 L 40 25.46875 z M 29 26 C 31.40355 26 33.581136 26.31871 35.0625 26.8125 C 35.803182 27.05939 36.372749 27.34487 36.6875 27.59375 C 37.002251 27.84263 37 27.98703 37 28 L 37 29 C 37 29.013 37.0023 29.12612 36.6875 29.375 C 36.372749 29.62388 35.803182 29.90936 35.0625 30.15625 C 33.581136 30.65004 31.40355 31 29 31 C 26.59645 31 24.418864 30.65004 22.9375 30.15625 C 22.196818 29.90936 21.627251 29.62388 21.3125 29.375 C 20.997749 29.12612 21 29.01297 21 29 C 21.0059 28.93768 21 28 21 28 C 21 27.987 20.9977 27.84263 21.3125 27.59375 C 21.627251 27.34487 22.196818 27.05939 22.9375 26.8125 C 24.418864 26.31871 26.59645 26 29 26 z M 71 26 C 73.40355 26 75.581136 26.31871 77.0625 26.8125 C 77.803182 27.05939 78.372749 27.34487 78.6875 27.59375 C 79.0023 27.84263 79 27.987 79 28 C 79 28 78.9941 28.9377 79 29 C 79 29.01297 79.002251 29.12612 78.6875 29.375 C 78.372749 29.62388 77.803182 29.90936 77.0625 30.15625 C 75.581136 30.65004 73.40355 31 71 31 C 68.59645 31 66.418864 30.65004 64.9375 30.15625 C 64.196818 29.90936 63.627251 29.62388 63.3125 29.375 C 62.9977 29.12612 63 29.013 63 29 L 63 28 C 63 27.98703 62.997749 27.84263 63.3125 27.59375 C 63.627251 27.34487 64.196818 27.05939 64.9375 26.8125 C 66.418864 26.31871 68.59645 26 71 26 z M 21 31.5 C 21.396743 31.70745 21.828156 31.90105 22.3125 32.0625 C 24.084636 32.65321 26.41755 33 29 33 C 31.58245 33 33.915364 32.65321 35.6875 32.0625 C 36.171844 31.90105 36.603257 31.70745 37 31.5 L 37 36 C 37 36.013 37.0023 36.12612 36.6875 36.375 C 36.372749 36.62388 35.803182 36.90936 35.0625 37.15625 C 33.581136 37.65004 31.40355 38 29 38 C 26.59645 38 24.418864 37.65004 22.9375 37.15625 C 22.196818 36.90936 21.627251 36.62388 21.3125 36.375 C 20.997749 36.12612 21 36.01297 21 36 L 21 31.5 z M 63 31.5 C 63.396743 31.70745 63.828156 31.90105 64.3125 32.0625 C 66.084636 32.65321 68.41755 33 71 33 C 73.58245 33 75.915364 32.65321 77.6875 32.0625 C 78.171844 31.90105 78.603257 31.70745 79 31.5 L 79 36 C 79 36.01297 79.002251 36.12612 78.6875 36.375 C 78.372749 36.62388 77.803182 36.90936 77.0625 37.15625 C 75.581136 37.65004 73.40355 38 71 38 C 68.59645 38 66.418864 37.65004 64.9375 37.15625 C 64.196818 36.90936 63.627251 36.62388 63.3125 36.375 C 62.9977 36.12612 63 36.013 63 36 L 63 31.5 z M 50 33 C 52.40355 33 54.581136 33.31871 56.0625 33.8125 C 56.803182 34.05939 57.372749 34.34487 57.6875 34.59375 C 58.0023 34.84263 58 34.987 58 35 C 58 35 57.9941 35.9377 58 36 C 58 36.01297 58.002251 36.12612 57.6875 36.375 C 57.372749 36.62388 56.803182 36.90936 56.0625 37.15625 C 54.581136 37.65004 52.40355 38 50 38 C 47.59645 38 45.418864 37.65004 43.9375 37.15625 C 43.196818 36.90936 42.627251 36.62388 42.3125 36.375 C 41.997749 36.12612 42 36.01297 42 36 C 42.0059 35.93768 42 35 42 35 C 42 34.987 41.9977 34.84263 42.3125 34.59375 C 42.627251 34.34487 43.196818 34.05939 43.9375 33.8125 C 45.418864 33.31871 47.59645 33 50 33 z M 42 38.5 C 42.396743 38.70745 42.828156 38.90105 43.3125 39.0625 C 45.084636 39.65321 47.41755 40 50 40 C 52.58245 40 54.915364 39.65321 56.6875 39.0625 C 57.171844 38.90105 57.603257 38.70745 58 38.5 L 58 43 C 58 43.01297 58.002251 43.12612 57.6875 43.375 C 57.372749 43.62388 56.803182 43.90936 56.0625 44.15625 C 54.581136 44.65004 52.40355 45 50 45 C 47.59645 45 45.418864 44.65004 43.9375 44.15625 C 43.196818 43.90936 42.627251 43.62388 42.3125 43.375 C 41.997749 43.12612 42 43.01297 42 43 L 42 38.5 z M 9 39.46875 L 49.03125 55.6875 C 49.004496 55.78916 48.993907 55.895056 49 56 L 49 80.5 L 9 64.3125 L 9 39.46875 z M 91 39.46875 L 91 64.3125 L 51 80.5 L 51 56 C 51.00609 55.895 50.9955 55.7891 50.96875 55.6875 L 91 39.46875 z "
       transform="translate(0,952.36218)"
       id="path6" />
  </g>
  <path
     style="fill:#e91c63;fill-opacity:1;stroke:none;stroke-width:0.42372882;stroke-linecap:square;stroke-linejoin:miter;stroke-miterlimit:4;stroke-dasharray:none;stroke-opacity:1"
     d="m 28.368644,71.976731 -19.3855932,-7.870045 0,-12.216651 0,-12.216652 2.0127122,0.805003 c 1.106991,0.442752 10.021186,4.048843 19.809322,8.013536 l 17.79661,7.208534 0.11243,12.107399 c 0.08873,9.555062 -5.93e-4,12.100181 -0.423729,12.07316 -0.294887,-0.01883 -9.259676,-3.575759 -19.921752,-7.904284 z"
     id="path4142"
     inkscape:connector-curvature="0" />
  <path
     style="fill:#8d1042;fill-opacity:1;stroke:none;stroke-width:0.42372882;stroke-linecap:square;stroke-linejoin:miter;stroke-miterlimit:4;stroke-dasharray:none;stroke-opacity:1"
     d="M 51.455366,67.786286 51.567797,55.657318 71.171564,47.715686 90.775333,39.774055 90.66309,52.033543 90.550847,64.293031 71.271186,72.102089 C 60.667373,76.397069 51.845593,79.91207 51.667231,79.9132 51.488869,79.914344 51.39353,74.457219 51.455366,67.786286 Z"
     id="path4144"
     inkscape:connector-curvature="0" />
  <path
     style="fill:#e91c63;fill-opacity:1;stroke:none;stroke-width:0.42372882;stroke-linecap:square;stroke-linejoin:miter;stroke-miterlimit:4;stroke-dasharray:none;stroke-opacity:1"
     d="M 30.494964,45.871352 C 20.07016,41.63999 11.537321,38.082547 11.5331,37.965924 c -0.0087,-0.240759 6.829311,-3.078818 6.94364,-2.881895 0.04082,0.07031 0.257244,0.699869 0.480943,1.399022 0.294034,0.918984 0.976846,1.553803 2.464435,2.291219 4.319476,2.141216 14.401036,1.531654 16.793879,-1.015411 0.864638,-0.920365 0.913767,-1.317503 0.781296,-6.31564 -0.105577,-3.983389 -0.0073,-5.384795 0.3883,-5.536086 0.383237,-0.146569 0.529661,0.428253 0.529661,2.079298 0,1.999664 0.14375,2.386583 1.162346,3.128578 l 1.162346,0.84671 -1.162346,0.914302 c -1.155293,0.908754 -1.162346,0.946076 -1.162346,6.151304 0,5.232427 0.001,5.237716 1.165254,6.054497 2.054154,1.441111 4.391831,1.958746 8.792373,1.946909 4.851382,-0.01305 7.25245,-0.572956 9.090903,-2.119915 l 1.290453,-1.085844 0,-4.873448 c 0,-4.85032 -0.0058,-4.878579 -1.232207,-5.954691 l -1.232208,-1.081244 1.232208,-1.036834 c 1.050462,-0.883905 1.232207,-1.341809 1.232207,-3.104513 0,-1.652492 0.126068,-2.019302 0.627835,-1.826756 0.466229,0.178909 0.520763,0.440984 0.211864,1.018166 -0.692105,1.29321 -0.522461,9.390662 0.218916,10.449122 1.180517,1.685425 4.182945,2.460107 9.534606,2.460107 7.037517,0 10.169491,-1.231096 10.169491,-3.997358 l 0,-1.210108 3.601695,1.501985 c 1.980932,0.826092 3.601695,1.631329 3.601695,1.789416 0,0.306251 -37.836766,15.714684 -38.424026,15.647587 -0.190938,-0.02181 -8.876545,-3.501689 -19.301349,-7.733051 z"
     id="path4146"
     inkscape:connector-curvature="0" />
  <path
     style="fill:#8d1042;fill-opacity:1;stroke:none;stroke-width:0.42372882;stroke-linecap:square;stroke-linejoin:miter;stroke-miterlimit:4;stroke-dasharray:none;stroke-opacity:1"
     d="m 44.364407,44.012339 -2.118644,-0.749627 -0.128076,-2.224576 c -0.07044,-1.223517 -0.07044,-2.222513 0,-2.21999 0.07044,0.0025 1.064101,0.288539 2.208131,0.635593 2.601305,0.789133 8.252794,0.81551 11.195232,0.05225 l 2.23116,-0.578755 -0.126105,2.164203 c -0.112615,1.932684 -0.262093,2.229169 -1.397291,2.771486 -2.033682,0.971548 -9.282824,1.062841 -11.864407,0.149415 z"
     id="path4148"
     inkscape:connector-curvature="0" />
  <path
     style="fill:#e91c63;fill-opacity:1;stroke:none;stroke-width:0.42372882;stroke-linecap:square;stroke-linejoin:miter;stroke-miterlimit:4;stroke-dasharray:none;stroke-opacity:1"
     d="m 46.288625,37.499604 c -2.543985,-0.439339 -4.397973,-1.427586 -4.143814,-2.208814 0.410645,-1.262233 2.639561,-1.773841 7.72807,-1.773841 5.742397,0 7.971193,0.584225 7.754615,2.032684 -0.246364,1.647665 -6.681373,2.754308 -11.338871,1.949971 z"
     id="path4150"
     inkscape:connector-curvature="0" />
  <path
     style="fill:#e91c63;fill-opacity:1;stroke:none;stroke-width:0.42372882;stroke-linecap:square;stroke-linejoin:miter;stroke-miterlimit:4;stroke-dasharray:none;stroke-opacity:1"
     d="m 24.058606,30.314165 c -3.188571,-0.798034 -3.692849,-2.166636 -1.198437,-3.252533 2.334074,-1.016096 9.41219,-0.999393 12.076272,0.0285 2.431948,0.938327 2.565261,1.786356 0.423728,2.69542 -1.901065,0.806987 -8.88426,1.133617 -11.301563,0.528615 z"
     id="path4152"
     inkscape:connector-curvature="0" />
  <path
     style="fill:#8d1042;fill-opacity:1;stroke:none;stroke-width:0.42372882;stroke-linecap:square;stroke-linejoin:miter;stroke-miterlimit:4;stroke-dasharray:none;stroke-opacity:1"
     d="m 25.720339,37.534879 c -1.165254,-0.179023 -2.643008,-0.531871 -3.283898,-0.784107 -1.06023,-0.417275 -1.165255,-0.654596 -1.165255,-2.633076 0,-1.851608 0.1044,-2.134404 0.703137,-1.904647 0.386725,0.1484 2.102827,0.477996 3.813559,0.732436 2.93938,0.437178 7.023344,0.138869 10.207881,-0.745626 0.888765,-0.246852 0.95339,-0.132865 0.95339,1.681631 0,2.409327 -0.763795,3.004781 -4.661017,3.633724 -3.040043,0.49061 -3.493604,0.491968 -6.567797,0.01967 z"
     id="path4154"
     inkscape:connector-curvature="0" />
  <path
     style="fill:#e91c63;fill-opacity:1;stroke:none;stroke-width:0.42372882;stroke-linecap:square;stroke-linejoin:miter;stroke-miterlimit:4;stroke-dasharray:none;stroke-opacity:1"
     d="m 46.525822,23.515203 c -2.671633,-0.390027 -4.648262,-1.385993 -4.381011,-2.207464 0.410645,-1.262233 2.639561,-1.773841 7.72807,-1.773841 5.742397,0 7.971193,0.584225 7.754615,2.032684 -0.243096,1.62581 -6.177651,2.667472 -11.101674,1.948621 z"
     id="path4156"
     inkscape:connector-curvature="0" />
  <path
     style="fill:#8d1042;fill-opacity:1;stroke:none;stroke-width:0.42372882;stroke-linecap:square;stroke-linejoin:miter;stroke-miterlimit:4;stroke-dasharray:none;stroke-opacity:1"
     d="m 45.292487,30.324022 c -2.948619,-0.741664 -3.258589,-1.066828 -3.258589,-3.418332 0,-2.019396 0.05048,-2.116097 0.95339,-1.826453 3.667308,1.176434 8.983497,1.36463 12.533762,0.443703 l 2.23116,-0.578756 -0.126105,2.164204 c -0.112376,1.928584 -0.26341,2.229775 -1.38728,2.766494 -1.529307,0.730341 -8.66444,1.023103 -10.946338,0.44914 z"
     id="path4158"
     inkscape:connector-curvature="0" />
  <path
     style="fill:#8d1042;fill-opacity:1;stroke:none;stroke-width:0.42372882;stroke-linecap:square;stroke-linejoin:miter;stroke-miterlimit:4;stroke-dasharray:none;stroke-opacity:1"
     d="m 67.669492,37.539561 c -1.165255,-0.176449 -2.643009,-0.564623 -3.283899,-0.86261 -1.041117,-0.484076 -1.165254,-0.765082 -1.165254,-2.637758 0,-1.778476 0.106508,-2.055092 0.703136,-1.826144 0.386725,0.1484 2.102827,0.477996 3.81356,0.732436 2.939379,0.437178 7.023343,0.138869 10.20788,-0.745626 0.896803,-0.249084 0.95339,-0.139169 0.95339,1.851856 0,1.909916 -0.113815,2.163668 -1.165254,2.59796 -1.307792,0.540177 -5.799627,1.338307 -7.097458,1.26111 -0.466101,-0.02772 -1.800847,-0.194776 -2.966101,-0.371224 z"
     id="path4160"
     inkscape:connector-curvature="0" />
  <path
     style="fill:#e91c63;fill-opacity:1;stroke:none;stroke-width:0.42372882;stroke-linecap:square;stroke-linejoin:miter;stroke-miterlimit:4;stroke-dasharray:none;stroke-opacity:1"
     d="m 66.398305,30.369189 c -3.431924,-0.828226 -4.100669,-2.217686 -1.588983,-3.30145 2.071875,-0.893992 9.751068,-0.945396 12.182203,-0.08155 4.1072,1.459399 0.431225,3.761205 -5.932203,3.7146 -1.864407,-0.01366 -3.961864,-0.162876 -4.661017,-0.331603 z"
     id="path4162"
     inkscape:connector-curvature="0" />
</svg>
